<svg id="Layer_1" data-name="Layer 1" xmlns="http://www.w3.org/2000/svg" viewBox="0 0 1080 1080"><defs><style>.cls-1{fill:#a3a3a3;}</style></defs><title>facebook_logo-01</title><path class="cls-1" d="M267.598,568.463q-.00009-102.06606.00442-204.13215c.01067-43.18672,32.84347-76.204,75.81989-76.20942q204.561-.0259,409.122-.001c42.02844.00445,75.04838,31.31252,75.98959,73.42826.84295,37.71987.28369,75.47176.29008,113.20955q.02488,147.95293-.03743,295.90584c-.05105,40.13639-24.73194,70.46084-62.71849,77.47033a86.22427,86.22427,0,0,1-15.35126,1.158c-36.309.09507-72.61973-.11664-108.92624.19763-6.99285.06051-9.28529-1.78474-9.24257-9.03935q.54253-92.19576.32274-184.39526c-.00879-5.85542,1.46776-7.94468,7.6131-7.83077,19.43446.36023,38.88.17616,58.321.10941,10.6563-.03654,14.5581-3.23836,15.90378-13.73436q3.81478-29.75311,7.08891-59.57493c1.09261-9.79785-4.13047-15.41458-14.665-15.51224-21.44064-.19875-42.89642-.48579-64.32089.13148-8.55457.24649-10.60112-2.59416-10.29261-10.66321.6114-15.98722-.02869-32.01768.2507-48.02325.41766-23.92191,10.28194-34.68875,33.95922-36.40726,12.23388-.88795,24.56378-.41562,36.8486-.65015,11.76765-.22461,15.39571-3.84149,15.44487-15.47214q.10146-24.01511-.0034-48.03092c-.05157-10.83029-3.73062-14.83619-14.187-14.72986-23.14639.23534-46.45522-2.06788-69.41026.98422-54.29369,7.21879-86.86367,44.21013-89.54908,101.10023-.99655,21.11109-.52005,42.30488-.24233,63.45474.08182,6.22829-1.47475,8.59858-8.07172,8.36876-13.42089-.46752-26.87043-.22469-40.30666-.10308-11.6752.10564-16.00387,4.364-16.00282,16.20319.00173,19.7192.23288,39.43976.54141,59.157.14441,9.22759,4.45154,13.38376,13.8984,13.47983,14.29352.14538,28.59479.26824,42.882-.06356,5.65115-.13124,7.32043,1.80657,7.29865,7.34528q-.36753,93.48484-.2817,186.971c.00482,5.28-1.75592,6.86423-6.90094,6.85088-66.04121-.17119-132.09088.42927-198.12143-.44488-41.57636-.55041-72.94437-34.05407-72.96028-75.518Q267.56581,670.95791,267.598,568.463Z"/></svg>