<svg id="Layer_1" data-name="Layer 1" xmlns="http://www.w3.org/2000/svg" viewBox="0 0 1080 1080"><defs><style>.cls-1{fill:#a3a3a3;}</style></defs><title>instagram_logo</title><path class="cls-1" d="M538.20037,305.194c39.53215-.0001,79.06464.10186,118.59636-.02988,36.71427-.12235,69.68806,10.694,98.15129,33.94246,25.86626,21.12727,43.33852,48.0044,50.77414,80.684a172.06318,172.06318,0,0,1,4.443,37.03228q.57951,120.37705.13523,240.75855c-.1343,47.16452-18.30368,86.45514-54.30869,116.86021-27.68005,23.37482-60.23821,34.71011-96.47768,34.76819-80.84746.12973-161.7014.645-242.541-.16195-58.59379-.58492-102.86051-27.57345-132.1931-78.15048-12.899-22.2412-18.45115-46.85632-18.46144-72.60474-.0322-80.69909-.5864-161.40363.17978-242.09544.558-58.76679,27.47443-103.18915,78.26814-132.56842,22.53549-13.03461,47.44188-18.4615,73.49994-18.44242Q478.23333,305.23028,538.20037,305.194Zm.13413,495.79384q59.5312,0,119.06235-.00436c15.78672-.00528,31.17785-2.36393,45.39667-9.47658,38.69644-19.357,58.90743-50.92774,59.16677-94.10724.48117-80.11525.16162-160.23543.11666-240.35354-.00849-15.17317-2.4107-29.99117-9.17125-43.67921-19.23363-38.94254-50.78775-59.47569-94.175-59.75766-80.26341-.52162-160.53263-.19049-240.7993-.12548-25.95532.021-49.09024,8.109-68.59815,25.44816-23.73594,21.097-34.79079,47.85881-34.77563,79.45164q.05532,115.272.03318,230.544c.00242,5.79163.07107,11.60132.51288,17.37172,2.56475,33.49815,18.257,59.4134,45.928,78.0916,17.536,11.837,37.22764,16.62636,58.24052,16.60736Q478.80335,800.94448,538.3345,800.9878Z"/><path class="cls-1" d="M538.26134,717.37931c-77.13469-.10307-140.184-63.21755-140.08318-140.22789.101-77.131,63.21921-140.18494,140.22776-140.085,77.124.10011,140.18843,63.2295,140.08516,140.22951C678.38765,654.42562,615.2651,717.48228,538.26134,717.37931Zm.22912-48.2875c50.69608-.21432,91.92189-41.58281,91.71045-92.02779-.21252-50.69978-41.58384-91.929-92.02635-91.71007-50.70946.22005-91.91635,41.571-91.70628,92.02686C446.67939,628.089,488.03543,669.30512,538.49046,669.09181Z"/><path class="cls-1" d="M684.58625,466.76842a35.28155,35.28155,0,1,1-.34584-70.56186c19.29961-.19571,35.64828,16.05028,35.57436,35.35087A35.56142,35.56142,0,0,1,684.58625,466.76842Z"/></svg>