<svg id="Layer_1" data-name="Layer 1" xmlns="http://www.w3.org/2000/svg" viewBox="0 0 1080 1080"><defs><style>.cls-1{fill:#a3a3a3;}</style></defs><title>linkedin_logo</title><path class="cls-1" d="M597.202,514.66705c13.91654-14.16679,27.73926-28.42719,41.76684-42.48317,45.61223-45.70481,91.479-90.36494,137.10912-136.05195,3.46809-3.47244,8.516-10.64506,8.51682-12.7473,25.06306,19.84348,39.68975,46.37764,39.99356,77.63648,1.11044,114.23166.79838,228.48236.26132,342.72227-.22078,46.96411-41.18781,92.98975-89.53609,103.33334a125.02094,125.02094,0,0,1-26.40071,2.3431c-109.98481-.03769-219.97407.401-329.95177-.52323-32.23011-.2708-59.31482-14.52962-79.75734-40.12356a14.08378,14.08378,0,0,0,7.26452-4.16284c22.79384-22.81463,45.28316-45.09527,69.11679-67.27833,2.48264-1.56114,4.64134-1.9202,6.0104-3.97683,3.34419.344,2.30716-.70775,3.03966,2.17059,2.17238,8.53619,8.35651,10.59724,16.1612,10.56326,10.98178-.04769,21.968.19069,32.94595-.067,12.36-.2901,15.40681-3.39844,15.593-16.17492.29413-20.19091-.19186-40.38962.2748-60.57716.11617-5.02612-1.127-11.00864,5.27754-13.82155,10.77071-10.07337,22.1407-19.57134,30.59739-31.86656,7.55693,2.37532,5.93281,8.97806,6.01494,14.24439.4422,28.3617.14391,56.7295.2082,85.095.008,3.54528.00176,7.0901.155,10.6346.35479,8.20568,4.73168,12.231,12.82342,12.42426,11.34478.27107,22.6928.2274,34.03657.07816,13.98694-.18393,16.99405-3.043,17.08229-16.88.22591-35.45629.15613-70.91471.04028-106.37093-.04535-13.89042,4.67774-25.68419,13.65938-35.8903,12.163-13.82109,27.71763-21.05966,46.01915-20.62681,21.51343.50877,39.50126,21.91827,39.91994,47.25973.58592,35.451.141,70.91256.19005,106.36956.03612,26.12951.07121,26.18721,25.92,26.19435,8.50962.00234,17.02456.20512,25.52761-.09388,11.30654-.39763,14.24348-3.45672,14.78964-14.81849.051-1.0621.04769-2.12687.04828-3.19059.02605-46.8035.28288-93.60888-.07472-140.4101-.38652-50.58345-39.03327-82.8201-89.14015-74.87067-7.70721,1.22271-15.32787,2.85514-22.97673,4.36961C605.40225,517.956,600.52725,519.76594,597.202,514.66705Z"/><path class="cls-1" d="M784.595,323.38463c-19.45166-17.5789-42.64468-27.28238-68.48442-27.41232-112.04573-.56344-224.10186-.921-336.142.05535-57.23746.49873-107.62034,50.88-108.1192,108.117-.97667,112.04-.61854,224.09641-.05588,336.14188.12969,25.84129,9.83473,49.03276,27.41025,68.4865,1.81426.09625,6.5101-3.50458,10.23353-7.16174,20.20963-19.85033,40.73549-40.57219,60.37209-58.87768,7.63532-7.31523,14.32367-7.27946,15.01731-15.89218,1.02864-43.22736.19921-86.47914.42934-129.72781.12267-23.04437-.209-46.0916.13514-69.1331.18543-12.41595,3.71291-15.85012,15.88313-16.2384,9.566-.30511,19.144-.15957,28.7154-.067,16.3751.1588,19.29807,2.95962,19.3685,19.23284.15022,34.74379-.02833,69.48863.1059,104.23268.02443,6.33038-.66726,12.79071,1.95905,18.87731,3.38324,4.33027,7.487,3.98722,11.0957.89194,10.94238-9.38512,21.083-19.55042,28.40757-32.15764.90819-5.63076.73328-11.30726.74628-16.96868.0573-25.14323-.04315-50.287.049-75.43048.06147-16.79585,1.99647-18.62651,19.16488-18.726,6.7284-.039,13.45706-.01377,20.18558-.01013,23.11519.01351,23.11545.01507,25.04357,22.66181.06.70586.1024,1.41328.1801,2.11706.39633,3.594.91689,7.30444,4.79288,8.79464,4.04855,1.55674,6.76114-1.3457,9.18136-3.84947a108.64921,108.64921,0,0,1,27.74186-21.19656c10.33228-13.04228,23.55882-23.1556,35.1591-34.91454,39.047-39.58216,76.10795-82.23761,115.30235-121.67475,10.23521-10.29862,30.538-29.39487,32.39671-33.21509C781.033,330.00509,784.78147,324.253,784.595,323.38463ZM416.24547,487.0433c-25.32555-.31966-46.71962-22.15165-46.36643-47.31541.35709-25.43431,21.82484-46.35694,47.35907-46.15657A46.659,46.659,0,0,1,463.301,440.71027C463.11465,466.1924,441.6135,487.36349,416.24547,487.0433Z"/></svg>