<svg id="Layer_1" data-name="Layer 1" xmlns="http://www.w3.org/2000/svg" viewBox="0 0 1920 1080"><defs><style>.cls-1{font-size:156.85323px;font-family:Oswald-Medium, Oswald;font-weight:500;letter-spacing:-0.02em;}.cls-1,.cls-12{fill:#120f1c;}.cls-2{letter-spacing:-0.024em;}.cls-3{letter-spacing:-0.02399em;}.cls-4{letter-spacing:-0.02799em;}.cls-5{letter-spacing:-0.02em;}.cls-6{font-size:62.95002px;font-family:Oswald-ExtraLight, Oswald;font-weight:200;letter-spacing:0.187em;}.cls-7{letter-spacing:0.183em;}.cls-8{letter-spacing:0.18701em;}.cls-9{fill:#ffad18;}.cls-10,.cls-11{fill:none;stroke:#120f1c;stroke-miterlimit:10;}.cls-10{stroke-width:3.09054px;}.cls-11{stroke-width:1.54527px;}</style></defs><title>Untitled-1</title><text class="cls-1" transform="translate(715.07031 538.83691)">E<tspan class="cls-2" x="63.99512" y="0">ASY</tspan><tspan x="288.44922" y="0" xml:space="preserve"> E</tspan><tspan class="cls-3" x="387.42188" y="0">A</tspan><tspan class="cls-4" x="465.5332" y="0">S</tspan><tspan class="cls-5" x="538.62598" y="0">E IT</tspan></text><text class="cls-6" transform="translate(719.98242 607.0498)">Rubens Ab<tspan class="cls-7" x="325.00586" y="0">r</tspan><tspan class="cls-8" x="354.33984" y="0">anches Filho</tspan></text><path class="cls-9" d="M384.78147,456.73943s-43.26759,24.72434-36.31387,57.175S362.375,550.22834,362.375,550.22834s-13.90744,15.45271-29.36015,10.04426c0,0,12.36217,22.40643,51.76658,11.58953,0,0-13.1348,18.54326-26.26961,14.68008,0,0,22.40643,20.08853,47.90341.77264,0,0-1.54527,13.1348-6.95372,13.1348,0,0,13.1348,3.86318,23.9517-3.86318,0,0,16.998,16.22535,84.98992,16.22535s88.85309-16.22535,88.85309-16.22535,20.86116,15.45272,34.7686,7.72636c0,0-13.90744-3.09054-11.58953-17.77062,0,0,36.31387,2.31791,44.04022-3.09054,0,0-19.31589-6.95372-21.63379-13.13481,0,0,37.08651-8.499,41.72232-15.45271,0,0-21.6338-2.3179-25.497-11.58953,0,0,12.36217-22.40643,12.36217-40.94969s-16.998-51.76658-25.497-56.4024c0,0-47.13077-32.45069-125.167-30.90542S424.18589,432.01509,384.78147,456.73943Z"/><path class="cls-9" d="M549.35285,420.77676s-9.27163-25.84817-27.04224-32.02926c0,0,3.09054,11.58954,0,16.22535,0,0-29.36016-19.31589-35.54124-16.22535,0,0,14.68008,15.45271,14.68008,22.40643,0,0-26.26961-13.1348-32.4507-10.04426,0,0,17.77062,13.90744,17.77062,17.77062,0,0-28.58752-2.31791-59.49294,12.36217"/><path class="cls-9" d="M581.03091,421.97083s51.76658-64.90139,64.90139-46.35813,6.18108,74.173,6.18108,74.173c-.77263,4.63582-2.3179,10.04427-3.86317,11.58954"/><path class="cls-10" d="M601.89207,431.24246s22.40643-40.94969,47.13077-42.495"/><path class="cls-9" d="M438.866,430.31178s-36.31387-48.518-83.44464-32.29265c0,0-18.68373,46.67421,13.08213,74.80517"/><path class="cls-10" d="M410.27845,434.333s-37.05292-35.5851-56.38561-30.541"/><path class="cls-10" d="M596.86994,598.00725c-40.17705,20.86116-112.77839,21.03742-162.25347,4.63582"/><path class="cls-11" d="M388.64465,520.09555c44.04023,77.26356,122.77882,24.58386,122.77882,24.58386,70.30984,46.35814,130.64565-31.53758,130.64565-39.26394"/><path class="cls-12" d="M510.72107,513.91447h43.26759a13.45167,13.45167,0,0,1,3.2001,6.73127c1.04549,5.75624-15.20577,20.47914-47.24032,20.311-32.45025-.17033-53.31186-3.86318-54.08449-20.86116C455.54625,513.10625,486.76937,513.91447,510.72107,513.91447Z"/><path class="cls-11" d="M438.866,452.87625c24.72434,32.4507,16.998,66.44667,16.998,66.44667,5.40844,24.72433,55.62976,20.86116,55.62976,20.86116,34.7686,0,45.5855-17.77062,45.5855-17.77062,3.86318-67.2193,35.54123-72.62775,35.54123-72.62775"/><circle class="cls-12" cx="582.57618" cy="499.23439" r="8.49899"/><circle class="cls-12" cx="428.8217" cy="499.23439" r="8.49899"/></svg>