<svg id="Layer_1" data-name="Layer 1" xmlns="http://www.w3.org/2000/svg" viewBox="0 0 1080 1080"><defs><style>.cls-1{fill:#a3a3a3;}</style></defs><title>vimeo_logo</title><path class="cls-1" d="M830.52784,437.80117q-.01239.37381-.02488.74766-.753,5.72143-1.50581,11.44286c-.84346,1.39313.46149,3.23822-.94914,4.512q-.63323,3.57283-1.26651,7.14565a16.84845,16.84845,0,0,1-.70077,6.06913c-1.22074,4.32167-2.03737,8.75617-3.589,12.98623-2.01261,5.31341-3.40666,10.84549-5.64182,16.08055-.37669,1.00488-.71068,2.026-1.0756,3.036-1.665,3.902-3.19514,7.86054-4.85852,11.76365-1.74275,4.64529-4.19312,8.98058-5.94937,13.61983-1.4943,2.72965-2.81978,5.546-4.19987,8.33426-1.10774,2.124-2.196,4.25808-3.19474,6.43722-2.52591,5.08906-5.21038,10.09463-7.916,15.08837-.93945,1.80216-1.99013,3.54191-3.0021,5.3039-1.87437,3.22035-3.64894,6.4981-5.55846,9.69822-2.50587,4.62678-5.50473,8.95609-8.1304,13.51042a21.83524,21.83524,0,0,0-1.52047,2.58734c-2.71624,4.24684-5.364,8.53761-8.13569,12.74905-2.117,3.20681-4.08509,6.51057-6.26856,9.67425-1.13183,1.64281-2.25485,3.2915-3.28464,5.00254-3.30934,4.90178-6.65419,9.7785-10.09409,14.58961-3.43853,4.76142-6.76427,9.60279-10.18266,14.37781-1.62956,2.30191-3.34525,4.54048-5.03529,6.79817-2.07483,2.58373-3.82633,5.40333-5.83623,8.03495-2.91661,3.8673-5.80113,7.75829-8.7124,11.62932q-6.55491,8.56731-13.13544,17.11463c-.69007.93247-1.55637,1.7131-2.258,2.63585-2.76045,3.69532-5.52095,7.39069-8.62681,10.80953a84.80172,84.80172,0,0,1-5.84575,7.30129c-2.14166,2.705-4.21506,5.466-6.55238,8.0102-2.58555,3.19576-5.14066,6.41761-7.9719,9.40394a57.25671,57.25671,0,0,1-4.45578,5.20975c-2.98971,3.73794-6.36091,7.14038-9.45615,10.78563a20.29162,20.29162,0,0,0-3.82544,4.34251c-3.75732,3.71946-7.101,7.82054-10.73,11.659q-1.61855,1.527-3.14621,3.14675c-4.05829,4.01585-8.06757,8.07992-12.111,12.10942-.84458.80169-1.67236,1.62081-2.47183,2.4692-3.70755,4.1585-8.29918,7.37475-12.124,11.40745a30.13747,30.13747,0,0,1-2.60475,2.35029c-4.10322,3.29219-7.74655,7.12661-12.01907,10.21918-1.67561,1.55149-3.47039,2.96016-5.23944,4.40055-3.12049,2.4605-6.1772,5.00286-9.40714,7.32227-3.38413,2.40659-6.69645,4.9154-10.16488,7.20366a45.29765,45.29765,0,0,0-4.02523,2.93771c-4.84177,2.82866-9.5106,5.94266-14.38448,8.71844-2.3253,1.04664-4.354,2.6303-6.6653,3.70462-2.67689,1.24153-5.26628,2.65749-7.91515,3.95808-5.14869,2.26507-10.41044,4.24782-15.6283,6.34487A139.30786,139.30786,0,0,1,507.012,847.007c-3.58577.75224-7.21217,1.23705-10.84077,1.72084-5.87065.801-11.74015,1.215-17.60626-.00142a57.8987,57.8987,0,0,1-8.72842-1.70818c-1.3984-.46614-2.784-.97864-4.193-1.41942a89.074,89.074,0,0,1-14.49964-7.48041c-2.84924-2.12513-5.85618-4.05665-8.33183-6.65135-2.0897-2.08723-4.25906-4.0882-6.54224-5.96617-2.19412-3.13648-5.21122-5.57414-7.41678-8.70155-2.33281-2.84076-4.4097-5.86792-6.48777-8.8946-1.33764-1.9065-2.66509-3.81993-3.84819-5.82916-2.94436-4.40349-5.48232-9.04769-8.11945-13.6338-1.09379-2.31324-2.25111-4.595-3.44421-6.85932-1.22912-2.66709-2.64359-5.24179-3.93207-7.88035-2.01837-4.90381-4.22884-9.72229-6.4249-14.5477-1.23136-3.18843-2.33281-6.427-3.71332-9.55893-.81465-2.25-1.4142-4.56382-2.05816-6.86559-1.18973-4.3374-2.27987-8.70151-3.6229-12.99616-1.14319-5.4171-2.89981-10.66618-4.38746-15.98894-1.37545-6.35562-3.57292-12.49118-5.05651-18.81751-.58831-2.97144-1.69587-5.804-2.36825-8.7536-1.38141-5.13385-2.76263-10.26726-4.21735-15.38085-1.20661-4.59483-2.451-9.17953-3.67376-13.76983-1.83231-6.01051-3.13448-12.1666-5.00835-18.16512-.95918-3.62281-1.84782-7.26645-3.1358-10.79492-1.17788-4.63313-2.27053-9.28871-3.60794-13.88107-1.33088-5.15-2.79146-10.2646-4.20824-15.39092-.632-3.12346-1.53858-6.17465-2.46033-9.22143-.57868-2.34267-1.31609-4.6422-1.93221-6.9755-1.17922-4.34562-2.28337-8.71135-3.62022-13.01312-1.15029-5.37546-2.83927-10.6027-4.3826-15.86922-1.56234-5.37913-2.92426-10.82051-4.98231-16.04595a109.55972,109.55972,0,0,0-3.74261-11.52805c-1.8628-5.09712-3.72111-10.19656-5.76752-15.22354-1.41995-3.59241-3.13378-7.05842-4.62587-10.61983a23.03326,23.03326,0,0,0-1.90278-4.15213c-2.13344-4.62933-4.93643-8.88675-7.41326-13.32378a68.84412,68.84412,0,0,0-5.49893-7.60964c-1.792-2.78833-4.401-4.81813-6.66874-7.16411a32.27979,32.27979,0,0,0-8.23891-5.50908c-4.45613-1.76864-8.917-2.89057-13.43545-.20073a85.32386,85.32386,0,0,0-10.81554,5.82246c-1.29445.78534-2.52785,1.66718-3.82075,2.45606-4.89982,2.92093-9.69441,6.00685-14.42357,9.195a34.59961,34.59961,0,0,0-4.03294,2.968c-2.54462,1.651-5.0549,3.353-7.594,5.01092-1.20891.78934-2.38892,1.72384-3.99882,1.39813-2.6726-1.48119-3.89241-4.296-5.88334-6.40476-2.704-3.75923-5.70965-7.28769-8.48682-10.99144-1.11245-1.22432-1.97371-2.64507-3.06247-3.88925-2.6617-3.41457-5.2163-6.91253-8.0017-10.22856a19.44871,19.44871,0,0,1-3.11487-5.17823c-.90289-1.34456.36272-2.02623.89622-2.93171,1.747-3.43522,5.18226-5.19454,7.78638-7.777,1.01074-1.00237,2.21782-1.8294,3.22886-2.85888a38.4597,38.4597,0,0,1,3.10314-2.46766c4.60446-4.55822,9.59463-8.68363,14.45779-12.9513q9.629-8.88957,19.57265-17.42425c2.73075-2.86749,5.88085-5.27237,8.767-7.96794A32.25651,32.25651,0,0,1,265.925,394.265c3.15167-3.31636,6.95987-5.91257,10.08079-9.25744,1.80438-1.90209,4.18558-3.14509,5.89125-5.16262,2.61944-2.97739,6.03952-5.07913,8.71478-7.99531,2.31035-2.37649,5.09541-4.207,7.46923-6.51159,2.58333-1.74129,4.60021-4.16666,7.1511-5.94782,3.68243-2.81184,7.065-5.9957,10.80967-8.7301q1.88946-1.62462,3.89551-3.10316a352.476,352.476,0,0,1,29.15646-20.1616c3.13978-1.76777,6.24014-3.60893,9.49369-5.16934q3.08384-1.43285,6.06538-3.07172a99.39876,99.39876,0,0,1,14.06564-5.31958c4.6828-1.54936,9.6243-1.315,14.4143-2.12858,4.66078-.617,9.21061.65438,13.82537.79273a86.08559,86.08559,0,0,1,14.6769,3.65766,20.40075,20.40075,0,0,1,1.98686.92592,67.88341,67.88341,0,0,1,21.87574,15.16437A75.0251,75.0251,0,0,1,454.09111,342.96a8.15091,8.15091,0,0,1,.54645.82109,40.613,40.613,0,0,0,2.3219,3.64773c.84971,1.23374,1.486,2.58823,2.233,3.88243a128.07515,128.07515,0,0,1,7.26934,15.28612c1.95734,4.99239,3.65365,10.07094,5.126,15.22608,1.24318,4.41776,2.54462,8.81875,3.65389,13.27448,1.112,5.26344,1.94,10.57741,2.90752,15.86647.9177,5.79286,1.76112,11.59776,2.895,17.35425.41073,3.40975.90206,6.80748,1.60112,10.17279.99473,5.58336,1.56673,11.236,2.77043,16.78477.59393,3.58621,1.014,7.20008,1.69949,10.77267.90683,5.37895,1.6049,10.7935,2.78858,16.125.652,4.62545,1.51774,9.21555,2.29808,13.82006,1.57966,10.47235,3.70708,20.847,5.56952,31.26757.70987,4.33167,1.77867,8.59528,2.50183,12.92453,1.02495,5.1882,2.14086,10.35772,3.315,15.51408,1.08645,4.50209,2.028,9.03831,3.15383,13.53086,1.06812,4.385,2.08085,8.7847,3.30793,13.12984a8.55548,8.55548,0,0,1,.3457,1.06987c1.44915,5.57841,2.85079,11.17072,4.78015,16.6108,1.334,4.36866,2.853,8.67691,4.31314,13.00314,1.30648,4.1978,3.30015,8.11758,4.96,12.17132.36932.77126.72386,1.55016,1.10571,2.31563a73.52052,73.52052,0,0,0,9.062,15.07211c1.22336,1.39822,2.57277,2.67078,3.92,3.94538,4.51742,4.19067,9.56609,6.28922,15.72922,4.01963a40.57525,40.57525,0,0,0,12.10478-7.7051q.9044-.86013,1.77487-1.75447a117.05212,117.05212,0,0,0,12.08747-12.803,14.32743,14.32743,0,0,0,2.4525-3.01659c3.31988-3.89582,6.31425-8.03926,9.28733-12.19847,1.57673-2.3219,3.42519-4.44989,4.87292-6.864,1.579-2.365,3.21345-4.69281,4.67708-7.13449,6.60829-9.68883,12.66084-19.72519,18.67851-29.78271,1.7767-3.07952,3.63481-6.11315,5.22918-9.29587a26.69909,26.69909,0,0,0,2.93424-5.28994q3.69269-7.16436,7.18749-14.42581c1.86606-3.54683,3.25437-7.30369,4.82057-10.98281.37945-.80379.7513-1.61033,1.0713-2.44111a126.15854,126.15854,0,0,0,5.57218-17.34,91.62866,91.62866,0,0,0,2.28018-11.47812c.21743-5.22451,1.14626-10.41413.68256-15.663a60.42389,60.42389,0,0,0-2.14238-13.87765c-1.13484-5.4407-4.22737-9.8198-7.6407-14.02076-.35692-.36683-.7126-.73509-1.08809-1.08356a37.83011,37.83011,0,0,0-14.53908-7.60587c-2.59555-.65616-5.23549-1.0685-7.866-1.5454a91.07828,91.07828,0,0,0-19.45746.3493,96.88837,96.88837,0,0,0-13.07162,1.99282,113.10131,113.10131,0,0,0-16.17015,4.8287,45.68317,45.68317,0,0,1-4.79294,1.4468,1.925,1.925,0,0,1-1.553-.5185c-.5986-3.438,1.52269-6.23055,2.25-9.35547a45.468,45.468,0,0,1,1.47186-4.47536,51.88735,51.88735,0,0,0,2.27648-6.0108c1.06174-2.61693,2.209-5.2008,3.08045-7.89316,2.0998-5.10233,4.2028-10.20369,6.48839-15.22677,1.59717-2.87563,2.99522-5.85306,4.43481-8.80911,1.10058-1.92949,1.98609-3.97055,3.03752-5.92638,2.71073-4.308,5.06-8.83736,7.94821-13.0371,1.52474-2.18593,2.84253-4.51151,4.44223-6.64807,2.22481-2.92,4.20734-6.01787,6.49662-8.89136,2.68793-3.14614,4.99734-6.61548,8.03913-9.461,2.03968-1.68457,3.477-3.90126,5.17714-5.88636,2.66713-2.93941,6.13871-4.9997,8.73639-8.0158,2.46112-1.95689,4.87781-3.9708,7.37159-5.88895,2.756-1.91861,5.34227-4.06756,8.10472-5.97921,5.18065-3.50874,10.86419-6.15164,16.18042-9.4296,4.078-1.87031,8.21692-3.59773,12.35973-5.32079,4.827-2.0978,9.91332-3.41309,14.9172-4.98465,6.88949-1.99333,13.9649-3.08224,21.00121-4.37037,2.68953-.34749,5.40937-.42367,8.07908-.95354,5.06315.0561,10.0573-1.1086,15.13107-.84869,4.47245.009,8.94725-.21327,13.41286.15871,4.78422.83092,9.68949.60458,14.45549,1.60228,4.94015,1.23466,10.0285,1.85331,14.87756,3.48083,4.72938,1.892,9.63754,3.3718,14.07431,5.95909a93.55235,93.55235,0,0,1,9.56066,5.9799c2.15819,1.28868,3.74257,3.30452,5.87632,4.62731,3.42034,2.79627,6.10925,6.26738,8.90361,9.64252,1.84015,2.61195,3.77634,5.15882,5.43567,7.8973,1.48453,2.53481,2.99109,5.05672,4.29408,7.6944a139.70757,139.70757,0,0,1,5.31369,13.76587,105.70259,105.70259,0,0,1,2.94385,10.68488,5.73547,5.73547,0,0,1-.1414,3.84461,3.06715,3.06715,0,0,0,.65758,2.92136c.90644,2.88431.97838,5.90107,1.40654,8.86131.08265,2.20359-.18033,4.44344.68811,6.56485q.06846,1.032.13762,2.06373.32508,11.64368.65,23.287-.02746,1.37421-.05479,2.7484C830.29219,430.38218,831.50982,434.15584,830.52784,437.80117Z"/></svg>